<svg width="110" height="32" viewBox="0 0 110 32" fill="none" xmlns="http://www.w3.org/2000/svg">
<path d="M28.8406 21.9344H10.2312L11.1656 20.0312L26.6906 20.0031C27.2156 20.0031 27.6656 19.6281 27.7593 19.1094L29.9093 7.075C29.9656 6.75937 29.8812 6.43438 29.675 6.1875C29.573 6.066 29.4459 5.96813 29.3024 5.90068C29.1588 5.83323 29.0023 5.79781 28.8437 5.79688L9.09373 5.73125L8.92498 4.9375C8.81873 4.43125 8.36248 4.0625 7.84373 4.0625H3.0156C2.72303 4.0625 2.44245 4.17872 2.23557 4.3856C2.0287 4.59247 1.91248 4.87306 1.91248 5.16563C1.91248 5.45819 2.0287 5.73878 2.23557 5.94565C2.44245 6.15253 2.72303 6.26875 3.0156 6.26875H6.94998L7.68748 9.775L9.5031 18.5656L7.1656 22.3813C7.04421 22.5451 6.9711 22.7396 6.95453 22.9429C6.93796 23.1461 6.9786 23.3499 7.07185 23.5312C7.25935 23.9031 7.63748 24.1375 8.05622 24.1375H10.0187C9.60035 24.6932 9.37436 25.37 9.37498 26.0656C9.37498 27.8344 10.8125 29.2719 12.5812 29.2719C14.35 29.2719 15.7875 27.8344 15.7875 26.0656C15.7875 25.3687 15.5562 24.6906 15.1437 24.1375H20.1781C19.7597 24.6932 19.5337 25.37 19.5343 26.0656C19.5343 27.8344 20.9718 29.2719 22.7406 29.2719C24.5093 29.2719 25.9468 27.8344 25.9468 26.0656C25.9468 25.3687 25.7156 24.6906 25.3031 24.1375H28.8437C29.45 24.1375 29.9468 23.6437 29.9468 23.0344C29.945 22.7421 29.8277 22.4624 29.6205 22.2564C29.4132 22.0503 29.1329 21.9345 28.8406 21.9344ZM9.5531 7.90625L27.5468 7.96562L25.7843 17.8344L11.65 17.8594L9.5531 7.90625ZM12.5812 27.0531C12.0375 27.0531 11.5937 26.6094 11.5937 26.0656C11.5937 25.5219 12.0375 25.0781 12.5812 25.0781C13.125 25.0781 13.5687 25.5219 13.5687 26.0656C13.5687 26.3275 13.4647 26.5787 13.2795 26.7639C13.0943 26.9491 12.8431 27.0531 12.5812 27.0531ZM22.7406 27.0531C22.1968 27.0531 21.7531 26.6094 21.7531 26.0656C21.7531 25.5219 22.1968 25.0781 22.7406 25.0781C23.2843 25.0781 23.7281 25.5219 23.7281 26.0656C23.7281 26.3275 23.6241 26.5787 23.4389 26.7639C23.2537 26.9491 23.0025 27.0531 22.7406 27.0531Z" fill="black"/>
<path d="M43.3906 8.5H47.5625L51.9688 19.25H52.1563L56.5625 8.5H60.7344V24.5H57.4531V14.0859H57.3203L53.1797 24.4219H50.9453L46.8047 14.0469H46.6719V24.5H43.3906V8.5ZM63.459 24.5V12.5H66.7871V24.5H63.459ZM65.1309 10.9531C64.6361 10.9531 64.2116 10.7891 63.8574 10.4609C63.5085 10.1276 63.334 9.72917 63.334 9.26562C63.334 8.80729 63.5085 8.41406 63.8574 8.08594C64.2116 7.7526 64.6361 7.58594 65.1309 7.58594C65.6257 7.58594 66.0475 7.7526 66.3965 8.08594C66.7507 8.41406 66.9277 8.80729 66.9277 9.26562C66.9277 9.72917 66.7507 10.1276 66.3965 10.4609C66.0475 10.7891 65.6257 10.9531 65.1309 10.9531ZM69.4531 24.5V12.5H72.625V14.6172H72.7656C73.0156 13.9141 73.4323 13.3594 74.0156 12.9531C74.599 12.5469 75.2969 12.3438 76.1094 12.3438C76.9323 12.3438 77.6328 12.5495 78.2109 12.9609C78.7891 13.3672 79.1745 13.9193 79.3672 14.6172H79.4922C79.737 13.9297 80.1797 13.3802 80.8203 12.9687C81.4661 12.5521 82.2292 12.3438 83.1094 12.3438C84.2292 12.3438 85.138 12.7005 85.8359 13.4141C86.5391 14.1224 86.8906 15.1276 86.8906 16.4297V24.5H83.5703V17.0859C83.5703 16.4193 83.3932 15.9193 83.0391 15.5859C82.6849 15.2526 82.2422 15.0859 81.7109 15.0859C81.1068 15.0859 80.6354 15.2786 80.2969 15.6641C79.9583 16.0443 79.7891 16.5469 79.7891 17.1719V24.5H76.5625V17.0156C76.5625 16.4271 76.3932 15.9583 76.0547 15.6094C75.7214 15.2604 75.2813 15.0859 74.7344 15.0859C74.3646 15.0859 74.0312 15.1797 73.7344 15.3672C73.4427 15.5495 73.2109 15.8073 73.0391 16.1406C72.8672 16.4687 72.7813 16.8542 72.7813 17.2969V24.5H69.4531ZM89.5195 24.5V12.5H92.8477V24.5H89.5195ZM91.1914 10.9531C90.6966 10.9531 90.2721 10.7891 89.918 10.4609C89.569 10.1276 89.3945 9.72917 89.3945 9.26562C89.3945 8.80729 89.569 8.41406 89.918 8.08594C90.2721 7.7526 90.6966 7.58594 91.1914 7.58594C91.6862 7.58594 92.1081 7.7526 92.457 8.08594C92.8112 8.41406 92.9883 8.80729 92.9883 9.26562C92.9883 9.72917 92.8112 10.1276 92.457 10.4609C92.1081 10.7891 91.6862 10.9531 91.1914 10.9531ZM100.264 23.6328V12.5703H103.061V23.6328H100.264ZM96.1309 19.5V16.7031H107.193V19.5H96.1309Z" fill="black"/>
</svg>
