<svg width="237" height="32" viewBox="0 0 237 32" fill="none" xmlns="http://www.w3.org/2000/svg">
<path d="M28.8406 21.9344H10.2313L11.1656 20.0312L26.6906 20.0031C27.2156 20.0031 27.6656 19.6281 27.7594 19.1094L29.9094 7.075C29.9656 6.75937 29.8813 6.43438 29.675 6.1875C29.5731 6.066 29.4459 5.96813 29.3024 5.90068C29.1588 5.83323 29.0023 5.79781 28.8438 5.79688L9.09376 5.73125L8.92501 4.9375C8.81876 4.43125 8.36251 4.0625 7.84376 4.0625H3.01563C2.72306 4.0625 2.44248 4.17872 2.2356 4.3856C2.02873 4.59247 1.91251 4.87306 1.91251 5.16563C1.91251 5.45819 2.02873 5.73878 2.2356 5.94565C2.44248 6.15253 2.72306 6.26875 3.01563 6.26875H6.95001L7.68751 9.775L9.50313 18.5656L7.16563 22.3813C7.04424 22.5451 6.97113 22.7396 6.95456 22.9429C6.93799 23.1461 6.97863 23.3499 7.07188 23.5312C7.25938 23.9031 7.63751 24.1375 8.05626 24.1375H10.0188C9.60038 24.6932 9.37439 25.37 9.37501 26.0656C9.37501 27.8344 10.8125 29.2719 12.5813 29.2719C14.35 29.2719 15.7875 27.8344 15.7875 26.0656C15.7875 25.3687 15.5563 24.6906 15.1438 24.1375H20.1781C19.7598 24.6932 19.5338 25.37 19.5344 26.0656C19.5344 27.8344 20.9719 29.2719 22.7406 29.2719C24.5094 29.2719 25.9469 27.8344 25.9469 26.0656C25.9469 25.3687 25.7156 24.6906 25.3031 24.1375H28.8438C29.45 24.1375 29.9469 23.6437 29.9469 23.0344C29.9451 22.7421 29.8277 22.4624 29.6205 22.2564C29.4132 22.0503 29.1329 21.9345 28.8406 21.9344ZM9.55313 7.90625L27.5469 7.96562L25.7844 17.8344L11.65 17.8594L9.55313 7.90625ZM12.5813 27.0531C12.0375 27.0531 11.5938 26.6094 11.5938 26.0656C11.5938 25.5219 12.0375 25.0781 12.5813 25.0781C13.125 25.0781 13.5688 25.5219 13.5688 26.0656C13.5688 26.3275 13.4647 26.5787 13.2795 26.7639C13.0943 26.9491 12.8432 27.0531 12.5813 27.0531ZM22.7406 27.0531C22.1969 27.0531 21.7531 26.6094 21.7531 26.0656C21.7531 25.5219 22.1969 25.0781 22.7406 25.0781C23.2844 25.0781 23.7281 25.5219 23.7281 26.0656C23.7281 26.3275 23.6241 26.5787 23.4389 26.7639C23.2537 26.9491 23.0025 27.0531 22.7406 27.0531Z" fill="black"/>
<path d="M43.3906 8.5H47.5625L51.9688 19.25H52.1563L56.5625 8.5H60.7344V24.5H57.4531V14.0859H57.3203L53.1797 24.4219H50.9453L46.8047 14.0469H46.6719V24.5H43.3906V8.5ZM63.459 24.5V12.5H66.7871V24.5H63.459ZM65.1309 10.9531C64.6361 10.9531 64.2116 10.7891 63.8574 10.4609C63.5085 10.1276 63.334 9.72917 63.334 9.26562C63.334 8.80729 63.5085 8.41406 63.8574 8.08594C64.2116 7.7526 64.6361 7.58594 65.1309 7.58594C65.6257 7.58594 66.0475 7.7526 66.3965 8.08594C66.7507 8.41406 66.9277 8.80729 66.9277 9.26562C66.9277 9.72917 66.7507 10.1276 66.3965 10.4609C66.0475 10.7891 65.6257 10.9531 65.1309 10.9531ZM69.4531 24.5V12.5H72.625V14.6172H72.7656C73.0156 13.9141 73.4323 13.3594 74.0156 12.9531C74.599 12.5469 75.2969 12.3438 76.1094 12.3438C76.9323 12.3438 77.6328 12.5495 78.2109 12.9609C78.7891 13.3672 79.1745 13.9193 79.3672 14.6172H79.4922C79.737 13.9297 80.1797 13.3802 80.8203 12.9687C81.4661 12.5521 82.2292 12.3438 83.1094 12.3438C84.2292 12.3438 85.138 12.7005 85.8359 13.4141C86.5391 14.1224 86.8906 15.1276 86.8906 16.4297V24.5H83.5703V17.0859C83.5703 16.4193 83.3932 15.9193 83.0391 15.5859C82.6849 15.2526 82.2422 15.0859 81.7109 15.0859C81.1068 15.0859 80.6354 15.2786 80.2969 15.6641C79.9583 16.0443 79.7891 16.5469 79.7891 17.1719V24.5H76.5625V17.0156C76.5625 16.4271 76.3932 15.9583 76.0547 15.6094C75.7214 15.2604 75.2813 15.0859 74.7344 15.0859C74.3646 15.0859 74.0312 15.1797 73.7344 15.3672C73.4427 15.5495 73.2109 15.8073 73.0391 16.1406C72.8672 16.4687 72.7813 16.8542 72.7813 17.2969V24.5H69.4531ZM89.5195 24.5V12.5H92.8477V24.5H89.5195ZM91.1914 10.9531C90.6966 10.9531 90.2721 10.7891 89.918 10.4609C89.569 10.1276 89.3945 9.72917 89.3945 9.26562C89.3945 8.80729 89.569 8.41406 89.918 8.08594C90.2721 7.7526 90.6966 7.58594 91.1914 7.58594C91.6862 7.58594 92.1081 7.7526 92.457 8.08594C92.8112 8.41406 92.9883 8.80729 92.9883 9.26562C92.9883 9.72917 92.8112 10.1276 92.457 10.4609C92.1081 10.7891 91.6862 10.9531 91.1914 10.9531ZM100.264 23.6328V12.5703H103.061V23.6328H100.264ZM96.1309 19.5V16.7031H107.193V19.5H96.1309ZM124.301 13.1016C124.238 12.4714 123.97 11.9818 123.496 11.6328C123.022 11.2839 122.379 11.1094 121.566 11.1094C121.014 11.1094 120.548 11.1875 120.168 11.3437C119.788 11.4948 119.496 11.7057 119.293 11.9766C119.095 12.2474 118.996 12.5547 118.996 12.8984C118.986 13.1849 119.046 13.4349 119.176 13.6484C119.311 13.862 119.496 14.0469 119.73 14.2031C119.965 14.3542 120.236 14.487 120.543 14.6016C120.85 14.7109 121.178 14.8047 121.527 14.8828L122.965 15.2266C123.663 15.3828 124.303 15.5911 124.887 15.8516C125.47 16.112 125.975 16.4323 126.402 16.8125C126.829 17.1927 127.16 17.6406 127.395 18.1562C127.634 18.6719 127.757 19.263 127.762 19.9297C127.757 20.9089 127.507 21.7578 127.012 22.4766C126.522 23.1901 125.814 23.7448 124.887 24.1406C123.965 24.5312 122.853 24.7266 121.551 24.7266C120.259 24.7266 119.134 24.5286 118.176 24.1328C117.223 23.737 116.478 23.151 115.941 22.375C115.41 21.5937 115.132 20.6276 115.105 19.4766H118.379C118.415 20.013 118.569 20.4609 118.84 20.8203C119.116 21.1745 119.483 21.4427 119.941 21.625C120.405 21.8021 120.928 21.8906 121.512 21.8906C122.085 21.8906 122.582 21.8073 123.004 21.6406C123.431 21.474 123.762 21.2422 123.996 20.9453C124.23 20.6484 124.348 20.3073 124.348 19.9219C124.348 19.5625 124.241 19.2604 124.027 19.0156C123.819 18.7708 123.512 18.5625 123.105 18.3906C122.704 18.2187 122.212 18.0625 121.629 17.9219L119.887 17.4844C118.538 17.1562 117.473 16.6432 116.691 15.9453C115.91 15.2474 115.522 14.3073 115.527 13.125C115.522 12.1562 115.78 11.3099 116.301 10.5859C116.827 9.86198 117.548 9.29687 118.465 8.89062C119.382 8.48437 120.423 8.28125 121.59 8.28125C122.777 8.28125 123.814 8.48437 124.699 8.89062C125.59 9.29687 126.283 9.86198 126.777 10.5859C127.272 11.3099 127.527 12.1484 127.543 13.1016H124.301ZM136.357 12.5V15H129.131V12.5H136.357ZM130.771 9.625H134.1V20.8125C134.1 21.1198 134.146 21.3594 134.24 21.5312C134.334 21.6979 134.464 21.8151 134.631 21.8828C134.803 21.9505 135.001 21.9844 135.225 21.9844C135.381 21.9844 135.537 21.9714 135.693 21.9453C135.85 21.9141 135.969 21.8906 136.053 21.875L136.576 24.3516C136.41 24.4036 136.175 24.4635 135.873 24.5313C135.571 24.6042 135.204 24.6484 134.771 24.6641C133.969 24.6953 133.266 24.5885 132.662 24.3437C132.063 24.099 131.597 23.7187 131.264 23.2031C130.93 22.6875 130.766 22.0365 130.771 21.25V9.625ZM141.947 24.7266C141.182 24.7266 140.499 24.5938 139.9 24.3281C139.301 24.0573 138.827 23.6589 138.479 23.1328C138.135 22.6016 137.963 21.9401 137.963 21.1484C137.963 20.4818 138.085 19.9219 138.33 19.4687C138.575 19.0156 138.908 18.651 139.33 18.375C139.752 18.099 140.231 17.8906 140.768 17.75C141.309 17.6094 141.877 17.5104 142.471 17.4531C143.169 17.3802 143.731 17.3125 144.158 17.25C144.585 17.1823 144.895 17.0833 145.088 16.9531C145.281 16.8229 145.377 16.6302 145.377 16.375V16.3281C145.377 15.8333 145.221 15.4505 144.908 15.1797C144.601 14.9089 144.163 14.7734 143.596 14.7734C142.997 14.7734 142.52 14.9062 142.166 15.1719C141.812 15.4323 141.577 15.7604 141.463 16.1562L138.385 15.9062C138.541 15.1771 138.848 14.5469 139.307 14.0156C139.765 13.4792 140.356 13.0677 141.08 12.7812C141.809 12.4896 142.653 12.3438 143.611 12.3438C144.278 12.3438 144.916 12.4219 145.525 12.5781C146.14 12.7344 146.684 12.9766 147.158 13.3047C147.637 13.6328 148.015 14.0547 148.291 14.5703C148.567 15.0807 148.705 15.6927 148.705 16.4062V24.5H145.549V22.8359H145.455C145.262 23.2109 145.005 23.5417 144.682 23.8281C144.359 24.1094 143.971 24.3307 143.518 24.4922C143.064 24.6484 142.541 24.7266 141.947 24.7266ZM142.9 22.4297C143.39 22.4297 143.822 22.3333 144.197 22.1406C144.572 21.9427 144.867 21.6771 145.08 21.3438C145.294 21.0104 145.4 20.6328 145.4 20.2109V18.9375C145.296 19.0052 145.153 19.0677 144.971 19.125C144.794 19.1771 144.593 19.2266 144.369 19.2734C144.145 19.3151 143.921 19.3542 143.697 19.3906C143.473 19.4219 143.27 19.4505 143.088 19.4766C142.697 19.5339 142.356 19.625 142.064 19.75C141.773 19.875 141.546 20.0443 141.385 20.2578C141.223 20.4661 141.143 20.7266 141.143 21.0391C141.143 21.4922 141.307 21.8385 141.635 22.0781C141.968 22.3125 142.39 22.4297 142.9 22.4297ZM157.74 12.5V15H150.334V12.5H157.74ZM152.029 24.5V11.6328C152.029 10.763 152.199 10.0417 152.537 9.46875C152.881 8.89583 153.35 8.46614 153.943 8.17969C154.537 7.89323 155.212 7.75 155.967 7.75C156.477 7.75 156.943 7.78906 157.365 7.86719C157.792 7.94531 158.11 8.01562 158.318 8.07812L157.725 10.5781C157.594 10.5365 157.433 10.4974 157.24 10.4609C157.053 10.4245 156.86 10.4062 156.662 10.4062C156.173 10.4062 155.831 10.5208 155.639 10.75C155.446 10.974 155.35 11.2891 155.35 11.6953V24.5H152.029ZM166.227 12.5V15H158.82V12.5H166.227ZM160.516 24.5V11.6328C160.516 10.763 160.685 10.0417 161.023 9.46875C161.367 8.89583 161.836 8.46614 162.43 8.17969C163.023 7.89323 163.698 7.75 164.453 7.75C164.964 7.75 165.43 7.78906 165.852 7.86719C166.279 7.94531 166.596 8.01562 166.805 8.07812L166.211 10.5781C166.081 10.5365 165.919 10.4974 165.727 10.4609C165.539 10.4245 165.346 10.4062 165.148 10.4062C164.659 10.4062 164.318 10.5208 164.125 10.75C163.932 10.974 163.836 11.2891 163.836 11.6953V24.5H160.516ZM173.414 24.5V8.5H179.727C180.94 8.5 181.974 8.73177 182.828 9.19531C183.682 9.65365 184.333 10.2917 184.781 11.1094C185.234 11.9219 185.461 12.8594 185.461 13.9219C185.461 14.9844 185.232 15.9219 184.773 16.7344C184.315 17.5469 183.651 18.1797 182.781 18.6328C181.917 19.0859 180.87 19.3125 179.641 19.3125H175.617V16.6016H179.094C179.745 16.6016 180.281 16.4896 180.703 16.2656C181.13 16.0365 181.448 15.7214 181.656 15.3203C181.87 14.9141 181.977 14.4479 181.977 13.9219C181.977 13.3906 181.87 12.9271 181.656 12.5312C181.448 12.1302 181.13 11.8203 180.703 11.6016C180.276 11.3776 179.734 11.2656 179.078 11.2656H176.797V24.5H173.414ZM192.824 24.7344C191.611 24.7344 190.561 24.4766 189.676 23.9609C188.796 23.4401 188.116 22.7161 187.637 21.7891C187.158 20.8568 186.918 19.776 186.918 18.5469C186.918 17.3073 187.158 16.224 187.637 15.2969C188.116 14.3646 188.796 13.6406 189.676 13.125C190.561 12.6042 191.611 12.3438 192.824 12.3438C194.038 12.3438 195.085 12.6042 195.965 13.125C196.85 13.6406 197.533 14.3646 198.012 15.2969C198.491 16.224 198.73 17.3073 198.73 18.5469C198.73 19.776 198.491 20.8568 198.012 21.7891C197.533 22.7161 196.85 23.4401 195.965 23.9609C195.085 24.4766 194.038 24.7344 192.824 24.7344ZM192.84 22.1562C193.392 22.1562 193.853 22 194.223 21.6875C194.592 21.3698 194.871 20.9375 195.059 20.3906C195.251 19.8437 195.348 19.2214 195.348 18.5234C195.348 17.8255 195.251 17.2031 195.059 16.6562C194.871 16.1094 194.592 15.6771 194.223 15.3594C193.853 15.0417 193.392 14.8828 192.84 14.8828C192.283 14.8828 191.814 15.0417 191.434 15.3594C191.059 15.6771 190.775 16.1094 190.582 16.6562C190.395 17.2031 190.301 17.8255 190.301 18.5234C190.301 19.2214 190.395 19.8437 190.582 20.3906C190.775 20.9375 191.059 21.3698 191.434 21.6875C191.814 22 192.283 22.1562 192.84 22.1562ZM200.895 24.5V12.5H204.121V14.5937H204.246C204.465 13.849 204.832 13.2865 205.348 12.9063C205.863 12.5208 206.457 12.3281 207.129 12.3281C207.296 12.3281 207.475 12.3385 207.668 12.3594C207.861 12.3802 208.03 12.4089 208.176 12.4453V15.3984C208.02 15.3516 207.803 15.3099 207.527 15.2734C207.251 15.237 206.999 15.2188 206.77 15.2188C206.28 15.2188 205.842 15.3255 205.457 15.5391C205.077 15.7474 204.775 16.0391 204.551 16.4141C204.332 16.7891 204.223 17.2214 204.223 17.7109V24.5H200.895ZM216.881 12.5V15H209.654V12.5H216.881ZM211.295 9.625H214.623V20.8125C214.623 21.1198 214.67 21.3594 214.764 21.5312C214.857 21.6979 214.988 21.8151 215.154 21.8828C215.326 21.9505 215.524 21.9844 215.748 21.9844C215.904 21.9844 216.061 21.9714 216.217 21.9453C216.373 21.9141 216.493 21.8906 216.576 21.875L217.1 24.3516C216.933 24.4036 216.699 24.4635 216.396 24.5313C216.094 24.6042 215.727 24.6484 215.295 24.6641C214.493 24.6953 213.79 24.5885 213.186 24.3437C212.587 24.099 212.12 23.7187 211.787 23.2031C211.454 22.6875 211.29 22.0365 211.295 21.25V9.625ZM222.471 24.7266C221.705 24.7266 221.023 24.5938 220.424 24.3281C219.825 24.0573 219.351 23.6589 219.002 23.1328C218.658 22.6016 218.486 21.9401 218.486 21.1484C218.486 20.4818 218.609 19.9219 218.854 19.4687C219.098 19.0156 219.432 18.651 219.854 18.375C220.275 18.099 220.755 17.8906 221.291 17.75C221.833 17.6094 222.4 17.5104 222.994 17.4531C223.692 17.3802 224.255 17.3125 224.682 17.25C225.109 17.1823 225.419 17.0833 225.611 16.9531C225.804 16.8229 225.9 16.6302 225.9 16.375V16.3281C225.9 15.8333 225.744 15.4505 225.432 15.1797C225.124 14.9089 224.687 14.7734 224.119 14.7734C223.52 14.7734 223.044 14.9062 222.689 15.1719C222.335 15.4323 222.101 15.7604 221.986 16.1562L218.908 15.9062C219.064 15.1771 219.372 14.5469 219.83 14.0156C220.288 13.4792 220.88 13.0677 221.604 12.7812C222.333 12.4896 223.176 12.3438 224.135 12.3438C224.801 12.3438 225.439 12.4219 226.049 12.5781C226.663 12.7344 227.208 12.9766 227.682 13.3047C228.161 13.6328 228.538 14.0547 228.814 14.5703C229.09 15.0807 229.229 15.6927 229.229 16.4062V24.5H226.072V22.8359H225.979C225.786 23.2109 225.528 23.5417 225.205 23.8281C224.882 24.1094 224.494 24.3307 224.041 24.4922C223.588 24.6484 223.064 24.7266 222.471 24.7266ZM223.424 22.4297C223.913 22.4297 224.346 22.3333 224.721 22.1406C225.096 21.9427 225.39 21.6771 225.604 21.3438C225.817 21.0104 225.924 20.6328 225.924 20.2109V18.9375C225.82 19.0052 225.676 19.0677 225.494 19.125C225.317 19.1771 225.117 19.2266 224.893 19.2734C224.669 19.3151 224.445 19.3542 224.221 19.3906C223.997 19.4219 223.794 19.4505 223.611 19.4766C223.221 19.5339 222.88 19.625 222.588 19.75C222.296 19.875 222.07 20.0443 221.908 20.2578C221.747 20.4661 221.666 20.7266 221.666 21.0391C221.666 21.4922 221.83 21.8385 222.158 22.0781C222.492 22.3125 222.913 22.4297 223.424 22.4297ZM235.139 8.5V24.5H231.811V8.5H235.139Z" fill="black"/>
</svg>
